<?xml version="1.0" encoding="UTF-8"?>
<svg id="Layer_1" data-name="Layer 1" xmlns="http://www.w3.org/2000/svg" viewBox="0 0 47.9 47.9">
  <defs>
    <style>
      .cls-1 {
        fill: #fcfaef;
      }

      .cls-2 {
        fill: #ff7955;
      }
    </style>
  </defs>
  <circle class="cls-2" cx="23.95" cy="23.95" r="23.95"/>
  <g>
    <path class="cls-1" d="m34.14,12.38c2.87,2.37,5.89,5.67,6.09,9.18.12,2-.69,3.85-2.39,5.49-2.67,2.58-6.14,3.1-9.28,1.41-3.07-1.66-4.89-5.02-4.33-8,.61-3.26,3.55-6.21,7.28-8.3-3.85-2.4-11.17-3.51-16.44.45-4.07,3.06-7.58,8.7-5.25,15.35,3.43,9.79,12.84,9.94,13.24,9.94v1.4c-.11,0-10.8-.14-14.56-10.88-2.58-7.36,1.27-13.57,5.73-16.93,6.09-4.58,14.68-3,18.69-.07m-.17,1.64c-3.74,1.99-6.63,4.83-7.15,7.66-.45,2.4,1.07,5.14,3.62,6.51,1.24.67,4.45,1.89,7.64-1.19,1.41-1.36,2.06-2.8,1.96-4.4-.18-3.21-3.29-6.37-6.08-8.58Z"/>
    <path class="cls-1" d="m18.97,30.7c-.1,0-.16,0-.17,0l.07-1.4s2.42.09,4.85-1.44c1.9-1.2,2.3-1.84,2.31-1.84l1.25.63c-.1.21-.6,1.01-2.81,2.4-2.45,1.54-4.83,1.65-5.49,1.65Z"/>
    <path class="cls-1" d="m17.58,22.05c-.7,0-1.29-.61-1.37-1.44h0c-.03-.38.05-.75.23-1.06.22-.36.57-.59.96-.62.39-.03.78.12,1.06.44.24.26.39.62.42.99.08.87-.45,1.61-1.2,1.68-.04,0-.08,0-.11,0Z"/>
  </g>
</svg>